Coordinates
version=1
nRows=21
nColumns=12
inDegrees=yes

Units are S.I. units (second, meters, Newtons, ...)
Angles are in degrees

endheader
time	SC_y	SC_z	SC_x	AC_y	AC_z	AC_x	GH_y	GH_z	GH_yy	EL_x	PS_y
       0.0              -40.54          37.64          64.81          65.51         0.5496          6.641         -141.0         -17.31         -9.977          112.5          96.58
   0.02392              -40.53          37.64          64.81          65.51         0.5502           6.64         -141.0          -17.3          -9.99          112.5          96.57
   0.04785              -40.53          37.63          64.81          65.51         0.5507          6.639         -141.0         -17.29          -10.0          112.5          96.57
   0.07177              -40.53          37.63          64.81          65.51         0.5513          6.639         -141.0         -17.27         -10.02          112.5          96.56
   0.09569              -40.53          37.63          64.81          65.51         0.5519          6.638         -141.0         -17.26         -10.03          112.5          96.55
    0.1196              -40.52          37.63          64.81          65.51         0.5525          6.637         -141.0         -17.25         -10.05          112.5          96.54
    0.1435              -40.52          37.62          64.81          65.51         0.5532          6.636         -141.0         -17.23         -10.07          112.4          96.53
    0.1675              -40.52          37.62          64.81          65.51          0.554          6.635         -141.0         -17.21         -10.09          112.4          96.51
    0.1914              -40.51          37.62          64.81          65.51         0.5548          6.634         -141.0          -17.2         -10.11          112.4           96.5
    0.2153              -40.51          37.61          64.81          65.51         0.5556          6.632         -141.0         -17.18         -10.13          112.4          96.49
    0.2392              -40.51          37.61          64.81          65.51         0.5566          6.631         -141.0         -17.16         -10.16          112.4          96.47
    0.2632               -40.5          37.61          64.82          65.51         0.5575           6.63         -141.0         -17.13         -10.18          112.4          96.46
    0.2871               -40.5           37.6          64.82          65.51         0.5586          6.628         -140.9         -17.11         -10.21          112.4          96.44
     0.311              -40.49           37.6          64.82          65.51         0.5598          6.627         -140.9         -17.09         -10.24          112.4          96.42
    0.3349              -40.48          37.59          64.82          65.51          0.561          6.625         -140.9         -17.06         -10.27          112.4           96.4
    0.3588              -40.48          37.59          64.82          65.51         0.5624          6.623         -140.9         -17.03         -10.31          112.3          96.38
    0.3828              -40.47          37.58          64.82          65.51         0.5638          6.621         -140.9         -16.99         -10.34          112.3          96.36
    0.4067              -40.46          37.57          64.82          65.51         0.5654          6.619         -140.9         -16.96         -10.39          112.3          96.33
    0.4306              -40.46          37.57          64.82          65.51         0.5672          6.616         -140.9         -16.92         -10.43          112.3          96.31
    0.4545              -40.45          37.56          64.83          65.51         0.5691          6.614         -140.9         -16.88         -10.48          112.3          96.27
    0.4785              -40.44          37.55          64.83          65.51         0.5712          6.611         -140.9         -16.83         -10.53          112.2          96.24
